<?xml version="1.0" encoding="utf-8"?>
<!-- Generator: Adobe Illustrator 27.7.0, SVG Export Plug-In . SVG Version: 6.00 Build 0)  -->
<svg version="1.1" id="Layer_1" xmlns="http://www.w3.org/2000/svg" xmlns:xlink="http://www.w3.org/1999/xlink" x="0px" y="0px"
	 viewBox="0 0 354 79" style="enable-background:new 0 0 354 79;" xml:space="preserve">
<style type="text/css">
	.st0{fill:#135159;}
</style>
<path class="st0" d="M280.1,9.5c-1.8,0-3.3,1.5-3.3,3.3c0,0,0,0,0,0v34.7c0,2.5-0.5,4.6-1.5,6.5c-1,1.9-2.4,3.3-4.1,4.3
	c-1.8,1-3.8,1.5-6.2,1.5s-4.3-0.5-6.2-1.5c-1.8-1-3.2-2.5-4.2-4.3c-1-1.9-1.5-4-1.5-6.5V12.8c0-1.8-1.5-3.3-3.3-3.3h-6.6
	c-4.3,0-7.9,3.5-7.9,7.9V49c0,5.4,1,10.1,2.8,14.2c1.9,4.1,4.7,7.2,8.3,9.5c3.7,2.3,8.1,3.4,13.3,3.4c4.5,0,8.4-0.9,11.8-2.8
	c1.9-1,3.5-2.4,4.8-4.1c0.5-0.7,1.6-0.3,1.6,0.5v2c0,1.8,1.5,3.3,3.3,3.3h10c1.8,0,3.3-1.5,3.3-3.3V12.8c0-1.8-1.5-3.3-3.3-3.3
	L280.1,9.5L280.1,9.5z M337.2,37.5l-10.1-3c-1.5-0.5-2.8-1-3.9-1.5c-1-0.5-1.8-1.2-2.3-1.9c-0.5-0.7-0.7-1.5-0.7-2.3
	c0-1.6,0.6-2.9,1.9-3.9c1.3-0.9,3-1.4,5.3-1.4c3.1,0,5.9,0.8,8.3,2.4c1.2,0.8,2.2,1.7,3.1,2.8c1.6,2,4.4,2.5,6.7,1.4l5.5-2.6
	c1.5-0.7,2.2-2.5,1.4-4c0,0,0,0,0-0.1c-2-3.9-4.9-7.1-8.7-9.5c-4.7-2.9-10.1-4.4-16.3-4.4c-4.7,0-8.9,0.8-12.5,2.5
	c-3.6,1.7-6.5,4-8.5,6.9c-2,3-3,6.4-3,10.4c0,4.5,1.4,8.4,4.2,11.7c2.8,3.3,6.8,5.7,11.9,7.2l10.8,3c1.4,0.4,2.5,0.9,3.5,1.4
	c0.9,0.5,1.6,1.1,2.1,1.8c0.5,0.7,0.7,1.5,0.7,2.4c0,1.8-0.7,3.2-2,4.2c-1.2,0.9-3,1.5-5.2,1.5c-3.3,0.1-6.6-0.8-9.4-2.7
	c-1.5-1-2.9-2.3-4.1-3.7c-2-2.5-5.4-3.4-8.3-2l-4.1,2c-1.9,0.9-2.7,3.2-1.8,5c2,4,5,7.3,9.1,9.9c5.1,3.3,11.2,5,18.1,5
	c4.9,0,9.2-0.8,12.9-2.5c3.6-1.7,6.5-4,8.5-6.9c2-3,3.1-6.4,3.1-10.4c0-4.6-1.4-8.5-4.2-11.6C346.4,41.4,342.4,39.1,337.2,37.5
	L337.2,37.5L337.2,37.5z"/>
<path class="st0" d="M217.4,55.6c-5.9-3-11.9-6-17.8-9c-2.9-1.5-5.6-3.1-8.2-5.1c-0.1-0.1-0.3-0.2-0.4-0.3c-0.4-0.3-0.7-0.7-0.8-1.1
	c0-0.1-0.1-0.2-0.1-0.3v0c0-0.2,0-0.4,0-0.6c0-0.2,0.1-0.3,0.1-0.4c0,0,0-0.1,0-0.1c0.1-0.1,0.1-0.2,0.2-0.4c0,0,0,0,0,0
	c0.2-0.3,0.4-0.5,0.7-0.7c0.1-0.1,0.2-0.2,0.4-0.3c2.4-1.8,4.9-3.4,7.5-4.8c6-3,12.1-6.1,18.1-9.1c5-2.5,7.8-8,6.8-13.2
	c-1.2-6.5-6.9-10.7-13.4-9.9c-3.9,0.5-7.1,2.5-8.9,6.1c-3,5.8-5.9,11.6-8.7,17.4c-1.7,3.5-3.6,6.9-6.1,9.9c-1,1.2-2.5,1.2-3.5,0
	l-0.1-0.1c-0.4-0.6-0.9-1.1-1.3-1.7c0-0.1-0.1-0.1-0.1-0.2c-1.4-1.9-2.6-4-3.6-6.1c-3-6.1-6-12.1-9.1-18.2c-2.5-5-7.9-7.8-13.1-6.9
	c-6.4,1.2-10.7,6.9-9.8,13.5c0.5,4,2.5,7.1,6,9c5.7,3,11.5,5.9,17.3,8.8c3.5,1.7,6.8,3.6,9.8,6.1c0.1,0.1,0.2,0.2,0.3,0.3
	c0.9,1.1,0.8,2.3-0.4,3.3c-2.3,1.8-4.8,3.5-7.4,4.8c-6.2,3.2-12.4,6.3-18.6,9.4c-2.3,1.2-4.1,2.8-5.4,5.1
	c-3.1,5.3-1.7,12.3,3.2,15.8c6.2,4.5,14.6,2.4,18.1-4.4c3-6,6-12,8.9-18c0.7-1.4,1.4-2.7,2.2-4c0.2-0.3,0.4-0.6,0.6-0.9
	c0.3-0.4,0.6-0.9,0.8-1.3c0.5-0.8,1.1-1.5,1.7-2.3c0.6-0.7,1.2-1.1,1.9-1.1h0c0.6,0,1.3,0.3,1.8,1c1.8,2.3,3.4,4.8,4.8,7.5
	c3.1,6.3,6.3,12.5,9.4,18.8c1.1,2.3,2.8,4.1,5,5.4c5.2,3.1,12.2,1.7,15.7-3.2C226.3,67.6,224.3,59.1,217.4,55.6L217.4,55.6
	L217.4,55.6z"/>
<path class="st0" d="M137.4,28.5c-1.4-3.8-3.4-7.1-6.1-10c-2.7-2.9-5.9-5.1-9.8-6.7c-3.9-1.6-8.3-2.4-13.4-2.4
	c-6,0-11.5,1.4-16.3,4.3c-4.8,2.9-8.6,6.8-11.4,11.8c-2.8,5-4.2,10.7-4.2,17.1c0,6.4,1.3,11.8,4.1,16.8c2.7,5.1,6.5,9.1,11.5,12.1
	c5,3,10.8,4.5,17.5,4.5c4.3,0,8.3-0.6,12-1.9c3.6-1.3,6.8-3.1,9.5-5.4c2.1-1.9,3.8-4,5-6.4c0.5-1,0.1-2.2-0.9-2.6l-6.6-3.1
	c-2.9-1.4-6.3-1-8.8,1c-0.6,0.5-1.3,1-2.1,1.4c-2.2,1.3-4.9,1.9-8,1.9c-3.4,0-6.3-0.8-8.7-2.3c-2.4-1.5-4.2-3.6-5.3-6.4
	c-0.4-1-0.8-2.1-1-3.2c-0.2-0.8,0.4-1.4,1.2-1.4H136c1.8,0,3.2-1.3,3.4-3.1c0.1-1.2,0.2-2.4,0.2-3.7
	C139.5,36.4,138.8,32.3,137.4,28.5L137.4,28.5L137.4,28.5z M119.5,34.8h-23c-0.7,0-1.3-0.6-1.3-1.3c0-0.2,0-0.3,0.1-0.5l0.3-0.8
	c1.1-2.9,2.7-5.1,4.9-6.5c2.2-1.5,4.8-2.2,7.8-2.2s5.7,0.8,7.8,2.3c2.1,1.5,3.6,3.6,4.5,6.2c0.1,0.4,0.2,0.8,0.3,1.2
	C121,34,120.3,34.8,119.5,34.8L119.5,34.8L119.5,34.8z M61.7,0h-6.1c-2,0-3.7,1.7-3.7,3.7v40.2c0,1.2-1.5,1.7-2.2,0.8L19.3,3.2
	c-0.8-1-2-1.6-3.3-1.6H6.7C3,1.6,0,4.6,0,8.4v64c0,2.1,1.7,3.7,3.7,3.7h11.1l0.1-0.1c1.3-0.2,2.4-1.2,2.7-2.5c0,0,0-0.1,0-0.2
	c0-0.2,0.1-0.4,0.1-0.6V32.9c0-1,1.3-1.5,1.9-0.6l27.2,38.4c2.3,3.3,6.1,5.3,10.2,5.3h9c2,0,3.6-1.5,3.6-4V7.9C69.5,3.5,66,0,61.7,0
	L61.7,0z"/>
</svg>
